<?xml version="1.0" encoding="UTF-8"?>
<svg xmlns="http://www.w3.org/2000/svg" viewBox="0 0 618 136">
  <defs>
  </defs>
  <path fill="#002b35" class="cls-1" d="m201,57.5c0-4.31-2.58-6.88-8.03-6.88h-22.94v14.77h22.94c5.31,0,8.03-3.09,8.03-7.89m58.73-6.89h-23.95v15.84h23.95c5.81,0,9.11-3.01,9.11-8.25,0-6.09-4.66-7.6-9.11-7.6m342.14,46.03h-8.82l-10.76-22.44h-20.01v22.44h-7.74v-53.78h31.69c8.6,0,16.84,4.38,16.84,15.34,0,11.69-7.81,15.35-12.33,15.71l11.11,22.73Zm-64.41,0h-44.11v-53.77h44.03v7.74h-36.28v14.13h26.56v7.74h-26.56v16.42h36.37v7.74Zm-63.17,0h-7.74l-31.98-40.86h-.14v40.86h-7.74v-53.77h7.74l31.98,40.87h.14v-40.87h7.74v53.77Zm-67.39,0h-7.74l-31.98-40.86h-.15v40.86h-7.74v-53.77h7.74l31.98,40.87h.15v-40.87h7.74v53.77Zm-66.54-20.28c0,10.18-3.87,21.44-23.59,21.44s-23.59-11.26-23.59-21.44v-33.49h7.74v33.49c0,7.89,3.3,13.7,15.85,13.7s15.85-5.81,15.85-13.7v-33.49h7.74v33.49Zm-65,20.29h-8.82l-10.75-22.44h-20.01v22.44h-7.75v-53.78h31.69c8.6,0,16.85,4.38,16.85,15.34,0,11.69-7.81,15.35-12.33,15.71l11.12,22.73Zm-82.39,0h-30.69v-53.77h30.69c7.96,0,15.77,4.44,15.77,14.63,0,5.88-2.87,8.89-4.8,10.82,3.02,1.37,7.39,5.95,7.39,12.69,0,10.25-7.96,15.62-18.36,15.62m0-23.51h-22.94v15.78h22.94c7.24,0,10.61-2.73,10.61-7.89,0-4.81-2.51-7.89-10.61-7.89m393.27-22.51h-23.95v15.84h23.95c5.8,0,9.1-3.01,9.1-8.25,0-6.09-4.66-7.6-9.1-7.6m-500.9,5.11c0-4.27-2.56-6.82-7.96-6.82h-22.75v14.64h22.75c5.26,0,7.96-3.06,7.96-7.82m2.56,23.32c0-4.76-2.49-7.82-10.52-7.82h-22.75v15.65h22.75c7.18,0,10.52-2.71,10.52-7.82m.35-12.59c2.99,1.36,7.33,5.9,7.33,12.59,0,10.17-7.89,15.49-18.2,15.49h-30.43v-53.32h30.43c7.89,0,15.64,4.41,15.64,14.5,0,5.83-2.85,8.82-4.76,10.73m27.66,1.54c0-26.58-21.63-48.21-48.21-48.21s-48.21,21.63-48.21,48.21,21.63,48.21,48.21,48.21,48.21-21.63,48.21-48.21m-.21-20.26c2.64,6.23,4.1,13.08,4.1,20.26,0,.91-.02,1.81-.07,2.7-.01.25-.04.5-.06.74-.04.64-.08,1.29-.15,1.92-.03.27-.07.53-.1.79-.07.61-.14,1.23-.24,1.84-.04.25-.09.49-.13.73-.1.62-.21,1.24-.34,1.86-.04.22-.1.43-.15.65-.14.64-.28,1.28-.45,1.9-.05.18-.1.36-.15.54-.18.66-.36,1.32-.57,1.96-.05.15-.1.29-.15.44-.22.68-.45,1.35-.7,2.02-.04.11-.09.22-.13.33-.26.7-.54,1.39-.83,2.07-.03.08-.07.15-.11.23-.31.71-.63,1.42-.97,2.11-.02.05-.05.1-.07.14-.36.72-.73,1.43-1.11,2.13-.02.03-.03.05-.05.08-.4.72-.82,1.43-1.25,2.13,0,0,0,.01-.01.02-2.22,3.58-4.86,6.87-7.85,9.81.12-.11.24-.22.35-.33l5.04,5.04c-10.72,10.72-25.53,17.36-41.85,17.36-32.66,0-59.23-26.57-59.23-59.23,0-16.32,6.64-31.13,17.36-41.85l5.04,5.04c-.11.11-.21.22-.31.33,2.93-2.99,6.22-5.62,9.8-7.84,0,0,0,0,.01,0,.7-.44,1.42-.85,2.14-1.26.02-.01.04-.03.07-.04.7-.39,1.42-.76,2.14-1.12.05-.02.09-.05.14-.07.7-.34,1.4-.66,2.12-.98.07-.03.15-.07.22-.1.69-.3,1.38-.57,2.09-.84.1-.04.21-.08.31-.12.67-.25,1.35-.48,2.04-.7.14-.05.28-.1.42-.14.66-.21,1.32-.39,1.99-.58.17-.05.34-.1.51-.15.64-.17,1.28-.31,1.93-.45.21-.05.41-.1.62-.14.63-.13,1.26-.24,1.89-.34.23-.04.46-.09.7-.12.63-.1,1.26-.17,1.89-.25.25-.03.49-.07.74-.09.66-.07,1.34-.11,2.01-.16.22-.01.44-.04.66-.05.89-.05,1.79-.07,2.7-.07,21.55,0,40.08,13.15,48,31.84m19,20.26C134.7,31.06,104.65,1,67.7,1S.7,31.06.7,68s30.06,67,67,67,67-30.06,67-67m482.6,21.89c0,1.87-.66,3.46-1.98,4.78s-2.91,1.98-4.78,1.98-3.46-.66-4.78-1.98-1.98-2.91-1.98-4.78.66-3.46,1.98-4.78,2.91-1.98,4.78-1.98,3.46.66,4.78,1.98,1.98,2.91,1.98,4.78Zm-1.49,0c0-1.45-.51-2.7-1.54-3.75-1.03-1.04-2.27-1.57-3.72-1.57s-2.69.52-3.72,1.57c-1.03,1.04-1.54,2.29-1.54,3.75s.51,2.7,1.54,3.75c1.03,1.04,2.27,1.57,3.72,1.57s2.69-.52,3.72-1.57c1.03-1.04,1.54-2.29,1.54-3.75Zm-1.47,3.2h-2.12l-2.04-2.47h-.67v2.47h-1.66v-6.73h2.55c.47,0,.85.02,1.14.05.29.04.57.13.85.28.31.17.53.38.68.62.14.25.21.55.21.91,0,.49-.14.89-.41,1.21-.28.32-.64.57-1.08.74l2.54,2.9Zm-2.89-4.73c0-.14-.03-.27-.09-.39-.06-.12-.16-.21-.3-.28-.13-.07-.28-.12-.45-.14-.17-.02-.36-.03-.57-.03h-.52v1.89h.4c.28,0,.51-.02.71-.06.2-.04.36-.1.48-.2.12-.09.21-.2.27-.33.06-.13.09-.29.09-.47Z"/>
</svg>